<svg xmlns="http://www.w3.org/2000/svg" viewBox="0 0 800 500" fill="none">
  <defs>
    <linearGradient id="bgGrad3" x1="0" y1="0" x2="800" y2="500" gradientUnits="userSpaceOnUse">
      <stop offset="0%" stop-color="#78350f"/>
      <stop offset="50%" stop-color="#92400e"/>
      <stop offset="100%" stop-color="#b45309"/>
    </linearGradient>
    <linearGradient id="fileGrad1" x1="0" y1="0" x2="1" y2="1">
      <stop offset="0%" stop-color="#fef3c7"/>
      <stop offset="100%" stop-color="#fde68a"/>
    </linearGradient>
    <linearGradient id="fileGrad2" x1="0" y1="0" x2="1" y2="1">
      <stop offset="0%" stop-color="#fff7ed"/>
      <stop offset="100%" stop-color="#fed7aa"/>
    </linearGradient>
    <linearGradient id="fileGrad3" x1="0" y1="0" x2="1" y2="1">
      <stop offset="0%" stop-color="#ecfdf5"/>
      <stop offset="100%" stop-color="#a7f3d0"/>
    </linearGradient>
    <linearGradient id="goldLine3" x1="0" y1="0" x2="1" y2="0">
      <stop offset="0%" stop-color="#C9A227"/>
      <stop offset="100%" stop-color="#E8C547"/>
    </linearGradient>
    <linearGradient id="stampGrad" x1="0" y1="0" x2="1" y2="1">
      <stop offset="0%" stop-color="#C9A227"/>
      <stop offset="100%" stop-color="#E8C547"/>
    </linearGradient>
  </defs>
  
  <!-- Background -->
  <rect width="800" height="500" fill="url(#bgGrad3)"/>
  
  <!-- Subtle texture -->
  <g opacity="0.04">
    <line x1="0" y1="25" x2="800" y2="25" stroke="white" stroke-width="0.5"/>
    <line x1="0" y1="50" x2="800" y2="50" stroke="white" stroke-width="0.5"/>
    <line x1="0" y1="75" x2="800" y2="75" stroke="white" stroke-width="0.5"/>
    <line x1="0" y1="100" x2="800" y2="100" stroke="white" stroke-width="0.5"/>
    <line x1="0" y1="125" x2="800" y2="125" stroke="white" stroke-width="0.5"/>
    <line x1="0" y1="150" x2="800" y2="150" stroke="white" stroke-width="0.5"/>
    <line x1="0" y1="175" x2="800" y2="175" stroke="white" stroke-width="0.5"/>
    <line x1="0" y1="200" x2="800" y2="200" stroke="white" stroke-width="0.5"/>
    <line x1="0" y1="225" x2="800" y2="225" stroke="white" stroke-width="0.5"/>
    <line x1="0" y1="250" x2="800" y2="250" stroke="white" stroke-width="0.5"/>
    <line x1="0" y1="275" x2="800" y2="275" stroke="white" stroke-width="0.5"/>
    <line x1="0" y1="300" x2="800" y2="300" stroke="white" stroke-width="0.5"/>
    <line x1="0" y1="325" x2="800" y2="325" stroke="white" stroke-width="0.5"/>
    <line x1="0" y1="350" x2="800" y2="350" stroke="white" stroke-width="0.5"/>
    <line x1="0" y1="375" x2="800" y2="375" stroke="white" stroke-width="0.5"/>
    <line x1="0" y1="400" x2="800" y2="400" stroke="white" stroke-width="0.5"/>
    <line x1="0" y1="425" x2="800" y2="425" stroke="white" stroke-width="0.5"/>
    <line x1="0" y1="450" x2="800" y2="450" stroke="white" stroke-width="0.5"/>
    <line x1="0" y1="475" x2="800" y2="475" stroke="white" stroke-width="0.5"/>
  </g>
  
  <!-- Background circle -->
  <circle cx="400" cy="220" r="130" fill="rgba(255,255,255,0.04)"/>
  
  <!-- file 1 (back - green/environmental) -->
  <g transform="translate(290, 100)">
    <rect x="0" y="0" width="120" height="160" rx="6" fill="url(#fileGrad3)" opacity="0.7"/>
    <rect x="0" y="0" width="120" height="160" rx="6" fill="none" stroke="rgba(255,255,255,0.2)" stroke-width="1"/>
    <!-- Header bar -->
    <rect x="0" y="0" width="120" height="28" rx="6" fill="#059669" opacity="0.8"/>
    <rect x="0" y="14" width="120" height="14" fill="#059669" opacity="0.8"/>
    <!-- Lines -->
    <rect x="14" y="42" width="70" height="3" rx="1.5" fill="#059669" opacity="0.3"/>
    <rect x="14" y="54" width="90" height="3" rx="1.5" fill="#059669" opacity="0.2"/>
    <rect x="14" y="66" width="80" height="3" rx="1.5" fill="#059669" opacity="0.2"/>
    <rect x="14" y="78" width="85" height="3" rx="1.5" fill="#059669" opacity="0.2"/>
    <!-- Leaf icon -->
    <text x="60" y="20" text-anchor="middle" font-size="14" fill="white">๐ฟ</text>
    <!-- Check -->
    <circle cx="60" cy="130" r="14" fill="#059669" opacity="0.3"/>
    <polyline points="52,130 58,136 70,124" stroke="#059669" stroke-width="2.5" fill="none" stroke-linecap="round"/>
  </g>
  
  <!-- File 2 (middle - main/safety) -->
  <g transform="translate(340, 80)">
    <rect x="0" y="0" width="120" height="160" rx="6" fill="url(#fileGrad1)" opacity="0.9"/>
    <rect x="0" y="0" width="120" height="160" rx="6" fill="none" stroke="rgba(255,255,255,0.3)" stroke-width="1.5"/>
    <!-- Header bar -->
    <rect x="0" y="0" width="120" height="28" rx="6" fill="#b45309" opacity="0.9"/>
    <rect x="0" y="14" width="120" height="14" fill="#b45309" opacity="0.9"/>
    <!-- Lines -->
    <rect x="14" y="42" width="60" height="3" rx="1.5" fill="#92400e" opacity="0.4"/>
    <rect x="14" y="54" width="88" height="3" rx="1.5" fill="#92400e" opacity="0.25"/>
    <rect x="14" y="66" width="75" height="3" rx="1.5" fill="#92400e" opacity="0.25"/>
    <rect x="14" y="78" width="82" height="3" rx="1.5" fill="#92400e" opacity="0.25"/>
    <rect x="14" y="90" width="68" height="3" rx="1.5" fill="#92400e" opacity="0.25"/>
    <!-- Safety icon -->
    <text x="60" y="20" text-anchor="middle" font-size="14" fill="white">โ๏ธ</text>
    <!-- Stamp -->
    <circle cx="60" cy="130" r="16" fill="none" stroke="#b45309" stroke-width="2.5" opacity="0.5"/>
    <text x="60" y="134" text-anchor="middle" font-family="Cairo, Arial" font-size="9" font-weight="700" fill="#b45309" opacity="0.6">ูุนุชูุฏ</text>
  </g>
  
  <!-- File 3 (front - fire/red) -->
  <g transform="translate(390, 100)">
    <rect x="0" y="0" width="120" height="160" rx="6" fill="url(#fileGrad2)" opacity="0.85"/>
    <rect x="0" y="0" width="120" height="160" rx="6" fill="none" stroke="rgba(255,255,255,0.25)" stroke-width="1.5"/>
    <!-- Header bar -->
    <rect x="0" y="0" width="120" height="28" rx="6" fill="#dc2626" opacity="0.85"/>
    <rect x="0" y="14" width="120" height="14" fill="#dc2626" opacity="0.85"/>
    <!-- Lines -->
    <rect x="14" y="42" width="55" height="3" rx="1.5" fill="#dc2626" opacity="0.3"/>
    <rect x="14" y="54" width="85" height="3" rx="1.5" fill="#dc2626" opacity="0.2"/>
    <rect x="14" y="66" width="72" height="3" rx="1.5" fill="#dc2626" opacity="0.2"/>
    <rect x="14" y="78" width="80" height="3" rx="1.5" fill="#dc2626" opacity="0.2"/>
    <!-- Fire icon -->
    <text x="60" y="20" text-anchor="middle" font-size="14" fill="white">๐ฅ</text>
    <!-- Check -->
    <circle cx="60" cy="130" r="14" fill="#dc2626" opacity="0.3"/>
    <polyline points="52,130 58,136 70,124" stroke="#dc2626" stroke-width="2.5" fill="none" stroke-linecap="round"/>
  </g>
  
  <!-- Gold stamp overlay -->
  <g transform="translate(420, 260)" opacity="0.7">
    <circle cx="0" cy="0" r="30" fill="none" stroke="url(#stampGrad)" stroke-width="3"/>
    <circle cx="0" cy="0" r="24" fill="none" stroke="url(#stampGrad)" stroke-width="1.5"/>
    <text x="0" y="4" text-anchor="middle" font-family="Cairo, Arial" font-size="11" font-weight="800" fill="#E8C547">ูุนุชูุฏ</text>
  </g>
  
  <!-- Pen / pencil icon -->
  <g transform="translate(500, 200) rotate(35)" opacity="0.4">
    <rect x="0" y="0" width="8" height="70" rx="2" fill="#fbbf24"/>
    <polygon points="0,70 4,82 8,70" fill="#fbbf24"/>
    <rect x="0" y="0" width="8" height="12" rx="2" fill="#92400e"/>
  </g>
  
  <!-- Clipboard in corner -->
  <g transform="translate(200, 290)" opacity="0.3">
    <rect x="0" y="0" width="60" height="80" rx="4" fill="white" opacity="0.2"/>
    <rect x="16" y="-6" width="28" height="12" rx="4" fill="#fbbf24" opacity="0.5"/>
    <rect x="8" y="16" width="44" height="2" rx="1" fill="white" opacity="0.3"/>
    <rect x="8" y="24" width="36" height="2" rx="1" fill="white" opacity="0.2"/>
    <rect x="8" y="32" width="40" height="2" rx="1" fill="white" opacity="0.2"/>
  </g>
  
  <!-- Decorative -->
  <g opacity="0.08">
    <circle cx="130" cy="120" r="70" fill="#fbbf24"/>
    <circle cx="670" cy="400" r="50" fill="#fbbf24"/>
  </g>
  
  <!-- Gold accent line -->
  <rect x="300" y="420" width="200" height="3" rx="1.5" fill="url(#goldLine3)" opacity="0.6"/>
  
  <!-- Text -->
  <text x="400" y="468" text-anchor="middle" font-family="Cairo, Arial, sans-serif" font-size="18" font-weight="700" fill="rgba(255,255,255,0.7)">ุงููููุงุช ุงููููุฉ</text>
</svg>
